<?xml version="1.0" encoding="UTF-8" standalone="no"?>
<!-- Created with Inkscape (http://www.inkscape.org/) -->

<svg
   width="193.53609"
   height="199.69067"
   viewBox="0 0 193.53609 199.69067"
   version="1.1"
   id="svg1"
   sodipodi:docname="e9d2q9e.svg"
   inkscape:export-filename="bitmap.svg"
   inkscape:export-xdpi="96"
   inkscape:export-ydpi="96"
   inkscape:version="1.1.2 (0a00cf5339, 2022-02-04)"
   xmlns:inkscape="http://www.inkscape.org/namespaces/inkscape"
   xmlns:sodipodi="http://sodipodi.sourceforge.net/DTD/sodipodi-0.dtd"
   xmlns="http://www.w3.org/2000/svg"
   xmlns:svg="http://www.w3.org/2000/svg"
   xmlns:rdf="http://www.w3.org/1999/02/22-rdf-syntax-ns#"
   xmlns:cc="http://creativecommons.org/ns#">
  <sodipodi:namedview
     id="namedview1"
     pagecolor="#ffffff"
     bordercolor="#000000"
     borderopacity="0.25"
     inkscape:showpageshadow="2"
     inkscape:pageopacity="0.0"
     inkscape:pagecheckerboard="true"
     inkscape:deskcolor="#d1d1d1"
     inkscape:document-units="px"
     inkscape:zoom="1.5878906"
     inkscape:cx="24.246003"
     inkscape:cy="110.2091"
     inkscape:window-width="1920"
     inkscape:window-height="1052"
     inkscape:window-x="0"
     inkscape:window-y="0"
     inkscape:window-maximized="1"
     inkscape:current-layer="g946"
     showgrid="false"
     inkscape:pageshadow="2"
     fit-margin-top="10"
     fit-margin-right="10"
     fit-margin-bottom="10"
     fit-margin-left="10" />
  <defs
     id="defs1" />
  <g
     inkscape:label="Layer 1"
     inkscape:groupmode="layer"
     id="layer1"
     transform="translate(-49.77883,-42.548035)" />
  <g
     inkscape:label="Layer 1"
     inkscape:groupmode="layer"
     id="g2"
     transform="matrix(1,0,0,-1,-49.77883,363.96436)" />
  <g
     inkscape:label="Layer 1 copy"
     inkscape:groupmode="layer"
     id="g3"
     transform="matrix(1,0,0,-1,-49.77883,363.96436)" />
  <g
     inkscape:label="Layer 1 copy"
     inkscape:groupmode="layer"
     id="g4"
     transform="matrix(1,0,0,-1,-49.77883,363.96436)" />
  <g
     inkscape:label="Layer 1 copy"
     inkscape:groupmode="layer"
     id="g5"
     transform="matrix(0.70710678,0.70710678,0.70710678,-0.70710678,-106.33202,99.170475)" />
  <g
     inkscape:label="Layer 1 copy"
     inkscape:groupmode="layer"
     id="g6"
     transform="rotate(-45,323.77908,279.45175)" />
  <g
     inkscape:label="Layer 1 copy"
     inkscape:groupmode="layer"
     id="g7"
     transform="rotate(-45,323.77908,279.45175)" />
  <g
     inkscape:label="Layer 1 copy"
     inkscape:groupmode="layer"
     id="g8"
     transform="matrix(0.70710678,0.70710678,0.70710678,-0.70710678,-111.67577,98.279855)" />
  <g
     inkscape:groupmode="layer"
     id="layer3"
     inkscape:label="Layer 1 copy 1"
     transform="translate(-49.77883,-42.548035)" />
  <g
     inkscape:groupmode="layer"
     id="layer4"
     inkscape:label="Layer 2"
     transform="translate(-49.77883,-42.548035)">
    <g
       id="g1055"
       transform="matrix(0.44552357,0,0,0.44552357,26.298273,32.062939)">
      <g
         id="g985">
        <g
           id="g956"
           transform="matrix(1,0,0,-1,0,406.51239)">
          <path
             sodipodi:type="star"
             style="fill:#000000"
             id="path3"
             inkscape:flatsided="true"
             sodipodi:sides="3"
             sodipodi:cx="250.64699"
             sodipodi:cy="122.80443"
             sodipodi:r1="45.977253"
             sodipodi:r2="22.988626"
             sodipodi:arg1="0.52359878"
             sodipodi:arg2="1.5707963"
             inkscape:rounded="0"
             inkscape:randomized="0"
             d="m 290.46446,145.79305 -79.63494,0 39.81747,-68.965875 z"
             inkscape:transform-center-y="6.3544441e-06"
             transform="matrix(0,-0.66448493,-0.63840853,0,486.30621,325.80524)"
             inkscape:transform-center-x="7.3380706" />
          <path
             sodipodi:type="star"
             style="fill:#000000"
             id="path292"
             inkscape:flatsided="true"
             sodipodi:sides="3"
             sodipodi:cx="250.64699"
             sodipodi:cy="122.80443"
             sodipodi:r1="45.977253"
             sodipodi:r2="22.988626"
             sodipodi:arg1="0.52359878"
             sodipodi:arg2="1.5707963"
             inkscape:rounded="0"
             inkscape:randomized="0"
             d="m 290.46446,145.79305 -79.63494,0 39.81747,-68.965875 z"
             inkscape:transform-center-y="14.386045"
             transform="matrix(0.4862529,-0.45287784,-0.43510554,-0.46717087,345.91679,482.3818)"
             inkscape:transform-center-x="14.681917" />
          <path
             sodipodi:type="star"
             style="fill:#000000"
             id="path294"
             inkscape:flatsided="true"
             sodipodi:sides="3"
             sodipodi:cx="250.64699"
             sodipodi:cy="122.80443"
             sodipodi:r1="45.977253"
             sodipodi:r2="22.988626"
             sodipodi:arg1="0.52359878"
             sodipodi:arg2="1.5707963"
             inkscape:rounded="0"
             inkscape:randomized="0"
             d="m 290.46446,145.79305 -79.63494,0 39.81747,-68.965875 z"
             inkscape:transform-center-y="0.19649614"
             transform="matrix(0.0044485,0.66447004,0.63839422,-0.00427392,31.777713,-5.0854521)"
             inkscape:transform-center-x="-7.4264704" />
          <path
             sodipodi:type="star"
             style="fill:#000000"
             id="path296"
             inkscape:flatsided="true"
             sodipodi:sides="3"
             sodipodi:cx="250.64699"
             sodipodi:cy="122.80443"
             sodipodi:r1="45.977253"
             sodipodi:r2="22.988626"
             sodipodi:arg1="0.52359878"
             sodipodi:arg2="1.5707963"
             inkscape:rounded="0"
             inkscape:randomized="0"
             d="m 290.46446,145.79305 -79.63494,0 39.81747,-68.965875 z"
             inkscape:transform-center-y="7.3591693"
             transform="matrix(0.66448408,-0.0010599,-0.0010183,-0.63840772,94.930719,389.78964)"
             inkscape:transform-center-x="0.046812244" />
          <path
             sodipodi:type="star"
             style="fill:#000000"
             id="path298"
             inkscape:flatsided="true"
             sodipodi:sides="3"
             sodipodi:cx="250.64699"
             sodipodi:cy="122.80443"
             sodipodi:r1="45.977253"
             sodipodi:r2="22.988626"
             sodipodi:arg1="0.52359878"
             sodipodi:arg2="1.5707963"
             inkscape:rounded="0"
             inkscape:randomized="0"
             d="m 290.46446,145.79305 -79.63494,0 39.81747,-68.965875 z"
             inkscape:transform-center-y="14.465846"
             transform="matrix(0.47823998,0.46133148,0.44322745,-0.4594724,-62.152206,252.46958)"
             inkscape:transform-center-x="-14.615759" />
          <path
             sodipodi:type="star"
             style="fill:#000000"
             id="path300"
             inkscape:flatsided="true"
             sodipodi:sides="3"
             sodipodi:cx="250.64699"
             sodipodi:cy="122.80443"
             sodipodi:r1="45.977253"
             sodipodi:r2="22.988626"
             sodipodi:arg1="0.52359878"
             sodipodi:arg2="1.5707963"
             inkscape:rounded="0"
             inkscape:randomized="0"
             d="m 290.46446,145.79305 -79.63494,0 39.81747,-68.965875 z"
             inkscape:transform-center-y="-14.49927"
             transform="matrix(-0.47469809,-0.46497521,-0.44672817,0.4560695,579.92075,74.416581)"
             inkscape:transform-center-x="14.585482" />
          <path
             sodipodi:type="star"
             style="fill:#000000"
             id="path302"
             inkscape:flatsided="true"
             sodipodi:sides="3"
             sodipodi:cx="250.64699"
             sodipodi:cy="122.80443"
             sodipodi:r1="45.977253"
             sodipodi:r2="22.988626"
             sodipodi:arg1="0.52359878"
             sodipodi:arg2="1.5707963"
             inkscape:rounded="0"
             inkscape:randomized="0"
             d="m 290.46446,145.79305 -79.63494,0 39.81747,-68.965875 z"
             inkscape:transform-center-y="-7.5621742"
             transform="matrix(-0.66438867,0.01130981,0.01086598,0.63831605,426.82242,-61.372652)"
             inkscape:transform-center-x="-0.4995822" />
          <path
             sodipodi:type="star"
             style="fill:#000000"
             id="path304"
             inkscape:flatsided="true"
             sodipodi:sides="3"
             sodipodi:cx="250.64699"
             sodipodi:cy="122.80443"
             sodipodi:r1="45.977253"
             sodipodi:r2="22.988626"
             sodipodi:arg1="0.52359878"
             sodipodi:arg2="1.5707963"
             inkscape:rounded="0"
             inkscape:randomized="0"
             d="m 290.46446,145.79305 -79.63494,0 39.81747,-68.965875 z"
             inkscape:transform-center-y="-14.497968"
             transform="matrix(-0.47483917,0.46483112,0.44658975,0.45620505,173.72672,-157.75947)"
             inkscape:transform-center-x="-14.586692" />
        </g>
        <g
           id="g915">
          <path
             style="fill:#000000;stroke:#000000;stroke-width:10;stroke-dasharray:none;stroke-opacity:1"
             d="m 260.95284,108.65613 v 140.7186 0"
             id="path9" />
          <path
             style="fill:#000000;stroke:#000000;stroke-width:10;stroke-dasharray:none;stroke-opacity:1"
             d="m 255.6091,247.59348 h 140.7186 v 0"
             id="path10" />
          <path
             style="fill:#000000;stroke:#000000;stroke-width:10;stroke-dasharray:none;stroke-opacity:1"
             d="m 260.95284,382.07771 v -140.7186 0"
             id="path11" />
          <path
             style="fill:#000000;stroke:#000000;stroke-width:10;stroke-dasharray:none;stroke-opacity:1"
             d="m 121.12487,247.59348 h 140.7186 v 0"
             id="path12" />
          <path
             style="fill:#000000;stroke:#000000;stroke-width:10;stroke-dasharray:none;stroke-opacity:1"
             d="M 257.51375,249.25133 411.3449,97.201432 v 0"
             id="path13"
             sodipodi:nodetypes="ccc" />
          <path
             style="fill:#000000;stroke:#000000;stroke-width:9.7775;stroke-dasharray:none;stroke-opacity:1"
             d="m 259.216,245.85755 149.53602,149.53422 v 0"
             id="path14"
             sodipodi:nodetypes="ccc" />
          <path
             style="fill:#000000;stroke:#000000;stroke-width:10;stroke-dasharray:none;stroke-opacity:1"
             d="M 115.90453,98.982674 267.95442,252.81383 v 0"
             id="path15"
             sodipodi:nodetypes="ccc" />
          <path
             style="fill:#000000;stroke:#000000;stroke-width:10;stroke-dasharray:none;stroke-opacity:1"
             d="m 106.10766,397.09492 153.83115,-152.0499 v 0"
             id="path16"
             sodipodi:nodetypes="ccc" />
        </g>
      </g>
      <g
         id="g946">
        <path
           id="path17"
           style="fill:#ffffff;stroke:#000000;stroke-width:10"
           d="m 309.46371,244.34932 a 50,50 0 0 1 -50,50 50,50 0 0 1 -50,-50 50,50 0 0 1 50,-50 50,50 0 0 1 50,50 z" />
        <g
           aria-label="e0"
           id="text18"
           style="font-size:50px;font-family:Arial;-inkscape-font-specification:Arial;baseline-shift:baseline;stroke:#000000;stroke-width:1.36216">
          <path
             d="m 260.28902,250.21647 c 0,-0.5 -0.4,-0.6 -0.65,-0.6 -0.45,0 -0.55,0.3 -0.65,0.7 -1.75,5.15 -6.25,5.15 -6.75,5.15 -2.5,0 -4.5,-1.5 -5.65,-3.35 -1.5,-2.4 -1.5,-5.7 -1.5,-7.5 h 13.95 c 1.1,0 1.25,0 1.25,-1.05 0,-4.95 -2.7,-9.8 -8.95,-9.8 -5.8,0 -10.4,5.15 -10.4,11.4 0,6.7 5.25,11.55 11,11.55 6.1,0 8.35,-5.55 8.35,-6.5 z m -3.3,-6.65 h -11.85 c 0.3,-7.45 4.5,-8.7 6.2,-8.7 5.15,0 5.65,6.75 5.65,8.7 z"
             style="font-family:'Cambria Math';-inkscape-font-specification:'Cambria Math'"
             id="path13063" />
          <path
             d="m 278.25882,254.67438 c 0,-2.87303 -0.17956,-5.74605 -1.43651,-8.4036 -1.65199,-3.44763 -4.59684,-4.02223 -6.10518,-4.02223 -2.15476,0 -4.7764,0.93373 -6.24882,4.27362 -1.14921,2.47799 -1.32878,5.27918 -1.32878,8.15221 0,2.69346 0.14365,5.92561 1.61608,8.65498 1.54425,2.90894 4.16588,3.62719 5.92561,3.62719 1.93929,0 4.66866,-0.75416 6.24883,-4.16588 1.14921,-2.47798 1.32877,-5.27918 1.32877,-8.11629 z m -2.98076,-0.43096 c 0,2.69346 0,5.13553 -0.39504,7.43395 -0.53869,3.41172 -2.58572,4.4891 -4.2018,4.4891 -1.4006,0 -3.51945,-0.89782 -4.16588,-4.34545 -0.39504,-2.15476 -0.39504,-5.45874 -0.39504,-7.5776 0,-2.29842 0,-4.66866 0.2873,-6.60795 0.68234,-4.27362 3.3758,-4.59684 4.27362,-4.59684 1.18512,0 3.55537,0.64643 4.23771,4.2018 0.35913,2.01111 0.35913,4.74049 0.35913,7.00299 z"
             style="font-size:35.9128px;font-family:'Cambria Math';-inkscape-font-specification:'Cambria Math';word-spacing:-0.0673365px;baseline-shift:sub"
             id="path13065" />
        </g>
        <g
           aria-label="e1"
           id="text23"
           style="font-size:50px;font-family:Arial;-inkscape-font-specification:Arial;baseline-shift:baseline;stroke:#000000;stroke-width:1.36216">
          <path
             d="m 448.91074,271.60173 c 0,-0.5 -0.4,-0.6 -0.65,-0.6 -0.45,0 -0.55,0.3 -0.65,0.7 -1.75,5.15 -6.25,5.15 -6.75,5.15 -2.5,0 -4.5,-1.5 -5.65,-3.35 -1.5,-2.4 -1.5,-5.7 -1.5,-7.5 h 13.95 c 1.1,0 1.25,0 1.25,-1.05 0,-4.95 -2.7,-9.8 -8.95,-9.8 -5.8,0 -10.4,5.15 -10.4,11.4 0,6.7 5.25,11.55 11,11.55 6.1,0 8.35,-5.55 8.35,-6.5 z m -3.3,-6.65 h -11.85 c 0.3,-7.45 4.5,-8.7 6.2,-8.7 5.15,0 5.65,6.75 5.65,8.7 z"
             style="font-family:'Cambria Math';-inkscape-font-specification:'Cambria Math'"
             id="path13058" />
          <path
             d="m 463.97815,287.55173 v -1.0075 h -1.04 c -2.925,0 -3.0225,-0.3575 -3.0225,-1.56 v -18.2325 c 0,-0.78 0,-0.845 -0.7475,-0.845 -2.015,2.08 -4.875,2.08 -5.915,2.08 v 1.0075 c 0.65,0 2.5675,0 4.2575,-0.845 v 16.835 c 0,1.17 -0.0975,1.56 -3.0225,1.56 h -1.04 v 1.0075 c 1.1375,-0.0975 3.965,-0.0975 5.265,-0.0975 1.3,0 4.1275,0 5.265,0.0975 z"
             style="font-size:65%;baseline-shift:sub"
             id="path13060" />
        </g>
        <g
           aria-label="e5"
           id="text26"
           style="font-size:50px;font-family:Arial;-inkscape-font-specification:Arial;baseline-shift:baseline;stroke:#000000;stroke-width:1.36216">
          <path
             d="m 439.93253,63.110905 c 0,-0.5 -0.4,-0.6 -0.65,-0.6 -0.45,0 -0.55,0.3 -0.65,0.7 -1.75,5.15 -6.25,5.15 -6.75,5.15 -2.5,0 -4.5,-1.5 -5.65,-3.35 -1.5,-2.4 -1.5,-5.7 -1.5,-7.5 h 13.95 c 1.1,0 1.25,0 1.25,-1.05 0,-4.95 -2.7,-9.8 -8.95,-9.8 -5.8,0 -10.4,5.15 -10.4,11.4 0,6.7 5.25,11.55 11,11.55 6.1,0 8.35,-5.55 8.35,-6.5 z m -3.3,-6.65 h -11.85 c 0.3,-7.45 4.5,-8.7 6.2,-8.7 5.15,0 5.65,6.75 5.65,8.7 z"
             style="font-family:'Cambria Math';-inkscape-font-specification:'Cambria Math'"
             id="path13053" />
          <path
             d="m 455.97494,72.528405 c 0,-3.8675 -2.665,-7.1175 -6.175,-7.1175 -1.56,0 -2.9575,0.52 -4.1275,1.6575 v -6.3375 c 0.65,0.195 1.7225,0.4225 2.7625,0.4225 3.9975,0 6.2725,-2.9575 6.2725,-3.38 0,-0.195 -0.0975,-0.3575 -0.325,-0.3575 0,0 -0.0975,0 -0.26,0.0975 -0.65,0.2925 -2.2425,0.9425 -4.42,0.9425 -1.3,0 -2.795,-0.2275 -4.3225,-0.91 -0.26,-0.0975 -0.39,-0.0975 -0.39,-0.0975 -0.325,0 -0.325,0.26 -0.325,0.78 v 9.62 c 0,0.585 0,0.845 0.455,0.845 0.2275,0 0.2925,-0.0975 0.4225,-0.2925 0.3575,-0.52 1.56,-2.275 4.1925,-2.275 1.69,0 2.5025,1.495 2.7625,2.08 0.52,1.2025 0.585,2.47 0.585,4.095 0,1.1375 0,3.0875 -0.78,4.4525 -0.78,1.2675 -1.9825,2.1125 -3.4775,2.1125 -2.3725,0 -4.225,-1.7225 -4.7775,-3.64 0.0975,0.0325 0.195,0.065 0.5525,0.065 1.0725,0 1.625,-0.8125 1.625,-1.5925 0,-0.78 -0.5525,-1.5925 -1.625,-1.5925 -0.455,0 -1.5925,0.2275 -1.5925,1.7225 0,2.795 2.2425,5.9475 5.8825,5.9475 3.77,0 7.085,-3.12 7.085,-7.2475 z"
             style="font-size:65%;baseline-shift:sub"
             id="path13055" />
        </g>
        <g
           aria-label="e8"
           id="text29"
           style="font-size:50px;font-family:Arial;-inkscape-font-specification:Arial;baseline-shift:baseline;stroke:#000000;stroke-width:1.36216">
          <path
             d="m 439.93253,431.95848 c 0,-0.5 -0.4,-0.6 -0.65,-0.6 -0.45,0 -0.55,0.3 -0.65,0.7 -1.75,5.15 -6.25,5.15 -6.75,5.15 -2.5,0 -4.5,-1.5 -5.65,-3.35 -1.5,-2.4 -1.5,-5.7 -1.5,-7.5 h 13.95 c 1.1,0 1.25,0 1.25,-1.05 0,-4.95 -2.7,-9.8 -8.95,-9.8 -5.8,0 -10.4,5.15 -10.4,11.4 0,6.7 5.25,11.55 11,11.55 6.1,0 8.35,-5.55 8.35,-6.5 z m -3.3,-6.65 h -11.85 c 0.3,-7.45 4.5,-8.7 6.2,-8.7 5.15,0 5.65,6.75 5.65,8.7 z"
             style="font-family:'Cambria Math';-inkscape-font-specification:'Cambria Math'"
             id="path13048" />
          <path
             d="m 456.23494,442.44848 c 0,-1.17 -0.3575,-2.6325 -1.5925,-3.9975 -0.6175,-0.6825 -1.1375,-1.0075 -3.2175,-2.3075 2.34,-1.2025 3.9325,-2.8925 3.9325,-5.0375 0,-2.99 -2.8925,-4.8425 -5.85,-4.8425 -3.25,0 -5.8825,2.405 -5.8825,5.4275 0,0.585 0.065,2.0475 1.43,3.575 0.3575,0.39 1.56,1.2025 2.3725,1.755 -1.885,0.9425 -4.68,2.7625 -4.68,5.98 0,3.445 3.315,5.6225 6.7275,5.6225 3.6725,0 6.76,-2.6975 6.76,-6.175 z m -2.3075,-11.3425 c 0,1.8525 -1.2675,3.4125 -3.2175,4.55 l -4.03,-2.6 c -1.495,-0.975 -1.625,-2.08 -1.625,-2.6325 0,-1.9825 2.1125,-3.3475 4.42,-3.3475 2.3725,0 4.4525,1.69 4.4525,4.03 z m 0.6825,12.5125 c 0,2.405 -2.4375,4.095 -5.1025,4.095 -2.795,0 -5.135,-2.015 -5.135,-4.7125 0,-1.885 1.04,-3.965 3.8025,-5.4925 l 3.9975,2.535 c 0.91,0.6175 2.4375,1.5925 2.4375,3.575 z"
             style="font-size:65%;baseline-shift:sub"
             id="path13050" />
        </g>
        <g
           aria-label="e4"
           id="text32"
           style="font-size:50px;font-family:Arial;-inkscape-font-specification:Arial;baseline-shift:baseline;stroke:#000000;stroke-width:1.36216">
          <path
             d="m 288.76358,431.95848 c 0,-0.5 -0.4,-0.6 -0.65,-0.6 -0.45,0 -0.55,0.3 -0.65,0.7 -1.75,5.15 -6.25,5.15 -6.75,5.15 -2.5,0 -4.5,-1.5 -5.65,-3.35 -1.5,-2.4 -1.5,-5.7 -1.5,-7.5 h 13.95 c 1.1,0 1.25,0 1.25,-1.05 0,-4.95 -2.7,-9.8 -8.95,-9.8 -5.8,0 -10.4,5.15 -10.4,11.4 0,6.7 5.25,11.55 11,11.55 6.1,0 8.35,-5.55 8.35,-6.5 z m -3.3,-6.65 h -11.85 c 0.3,-7.45 4.5,-8.7 6.2,-8.7 5.15,0 5.65,6.75 5.65,8.7 z"
             style="font-family:'Cambria Math';-inkscape-font-specification:'Cambria Math'"
             id="path13043" />
          <path
             d="m 305.521,442.54598 v -1.0075 h -3.25 v -14.7875 c 0,-0.65 0,-0.845 -0.52,-0.845 -0.2925,0 -0.39,0 -0.65,0.39 l -9.9775,15.2425 v 1.0075 h 8.645 v 2.8275 c 0,1.17 -0.065,1.5275 -2.47,1.5275 h -0.6825 v 1.0075 c 1.3325,-0.0975 3.0225,-0.0975 4.3875,-0.0975 1.365,0 3.0875,0 4.42,0.0975 v -1.0075 h -0.6825 c -2.405,0 -2.47,-0.3575 -2.47,-1.5275 v -2.8275 z m -5.5575,-1.0075 h -7.93 l 7.93,-12.1225 z"
             style="font-size:65%;baseline-shift:sub"
             id="path13045" />
        </g>
        <g
           aria-label="e2"
           id="text34"
           style="font-size:50px;font-family:Arial;-inkscape-font-specification:Arial;baseline-shift:baseline;stroke:#000000;stroke-width:1.36216">
          <path
             d="m 284.28687,63.110905 c 0,-0.5 -0.4,-0.6 -0.65,-0.6 -0.45,0 -0.55,0.3 -0.65,0.7 -1.75,5.15 -6.25,5.15 -6.75,5.15 -2.5,0 -4.5,-1.5 -5.65,-3.35 -1.5,-2.4 -1.5,-5.7 -1.5,-7.5 h 13.95 c 1.1,0 1.25,0 1.25,-1.05 0,-4.95 -2.7,-9.8 -8.95,-9.8 -5.8,0 -10.4,5.15 -10.4,11.4 0,6.7 5.25,11.55 11,11.55 6.1,0 8.35,-5.55 8.35,-6.5 z m -3.3,-6.65 h -11.85 c 0.3,-7.45 4.5,-8.7 6.2,-8.7 5.15,0 5.65,6.75 5.65,8.7 z"
             style="font-family:'Cambria Math';-inkscape-font-specification:'Cambria Math'"
             id="path13038" />
          <path
             d="m 300.32928,73.405905 h -0.8125 c -0.1625,0.975 -0.39,2.405 -0.715,2.8925 -0.2275,0.26 -2.3725,0.26 -3.0875,0.26 h -5.85 l 3.445,-3.3475 c 5.07,-4.485 7.02,-6.24 7.02,-9.49 0,-3.705 -2.925,-6.305 -6.89,-6.305 -3.6725,0 -6.0775,2.99 -6.0775,5.8825 0,1.82 1.625,1.82 1.7225,1.82 0.5525,0 1.69,-0.39 1.69,-1.7225 0,-0.845 -0.585,-1.69 -1.7225,-1.69 -0.26,0 -0.325,0 -0.4225,0.0325 0.7475,-2.1125 2.5025,-3.315 4.3875,-3.315 2.9575,0 4.355,2.6325 4.355,5.2975 0,2.6 -1.625,5.1675 -3.4125,7.1825 l -6.24,6.955 c -0.3575,0.3575 -0.3575,0.4225 -0.3575,1.2025 h 12.0575 z"
             style="font-size:65%;baseline-shift:sub"
             id="path13040" />
        </g>
        <g
           aria-label="e6"
           id="text36"
           style="font-size:50px;font-family:Arial;-inkscape-font-specification:Arial;baseline-shift:baseline;stroke:#000000;stroke-width:1.36216">
          <path
             d="m 113.13626,63.110905 c 0,-0.5 -0.4,-0.6 -0.65,-0.6 -0.45,0 -0.55,0.3 -0.65,0.7 -1.75,5.15 -6.25,5.15 -6.75,5.15 -2.5,0 -4.5,-1.5 -5.649999,-3.35 -1.5,-2.4 -1.5,-5.7 -1.5,-7.5 h 13.949999 c 1.1,0 1.25,0 1.25,-1.05 0,-4.95 -2.7,-9.8 -8.95,-9.8 -5.799999,0 -10.399999,5.15 -10.399999,11.4 0,6.7 5.25,11.55 10.999999,11.55 6.1,0 8.35,-5.55 8.35,-6.5 z m -3.3,-6.65 H 97.986261 c 0.3,-7.45 4.499999,-8.7 6.199999,-8.7 5.15,0 5.65,6.75 5.65,8.7 z"
             style="font-family:'Cambria Math';-inkscape-font-specification:'Cambria Math'"
             id="path13033" />
          <path
             d="m 129.43868,72.430905 c 0,-4.1275 -2.8925,-7.2475 -6.5,-7.2475 -2.21,0 -3.4125,1.6575 -4.0625,3.2175 v -0.78 c 0,-8.2225 4.03,-9.3925 5.6875,-9.3925 0.78,0 2.145,0.195 2.86,1.3 -0.4875,0 -1.7875,0 -1.7875,1.4625 0,1.0075 0.78,1.495 1.495,1.495 0.52,0 1.495,-0.2925 1.495,-1.56 0,-1.95 -1.43,-3.51 -4.1275,-3.51 -4.16,0 -8.5475,4.1925 -8.5475,11.375 0,8.6775 3.77,10.985 6.7925,10.985 3.6075,0 6.695,-3.055 6.695,-7.345 z m -2.925,-0.0325 c 0,1.56 0,3.185 -0.5525,4.355 -0.975,1.95 -2.47,2.1125 -3.2175,2.1125 -2.0475,0 -3.0225,-1.95 -3.2175,-2.4375 -0.585,-1.5275 -0.585,-4.1275 -0.585,-4.7125 0,-2.535 1.04,-5.785 3.965,-5.785 0.52,0 2.015,0 3.0225,2.015 0.585,1.2025 0.585,2.86 0.585,4.4525 z"
             style="font-size:65%;baseline-shift:sub"
             id="path13035" />
        </g>
        <g
           aria-label="e3"
           id="text38"
           style="font-size:50px;font-family:Arial;-inkscape-font-specification:Arial;baseline-shift:baseline;stroke:#000000;stroke-width:1.36216">
          <path
             d="m 95.179871,275.17299 c 0,-0.5 -0.4,-0.6 -0.65,-0.6 -0.45,0 -0.55,0.3 -0.65,0.7 -1.75,5.15 -6.25,5.15 -6.75,5.15 -2.5,0 -4.5,-1.5 -5.65,-3.35 -1.5,-2.4 -1.5,-5.7 -1.5,-7.5 h 13.95 c 1.1,0 1.25,0 1.25,-1.05 0,-4.95 -2.7,-9.8 -8.95,-9.8 -5.8,0 -10.4,5.15 -10.4,11.4 0,6.7 5.25,11.55 11,11.55 6.1,0 8.35,-5.55 8.35,-6.5 z m -3.3,-6.65 h -11.85 c 0.3,-7.45 4.5,-8.7 6.2,-8.7 5.15,0 5.65,6.75 5.65,8.7 z"
             style="font-family:'Cambria Math';-inkscape-font-specification:'Cambria Math'"
             id="path13028" />
          <path
             d="m 111.48229,285.56549 c 0,-2.665 -2.0475,-5.2 -5.4275,-5.8825 2.665,-0.8775 4.55,-3.1525 4.55,-5.72 0,-2.665 -2.86,-4.485 -5.98,-4.485 -3.2825,0 -5.752503,1.95 -5.752503,4.42 0,1.0725 0.715,1.69 1.657503,1.69 1.0075,0 1.6575,-0.715 1.6575,-1.6575 0,-1.625 -1.5275,-1.625 -2.015,-1.625 1.0075,-1.5925 3.1525,-2.015 4.3225,-2.015 1.3325,0 3.12,0.715 3.12,3.64 0,0.39 -0.065,2.275 -0.91,3.705 -0.975,1.56 -2.08,1.6575 -2.8925,1.69 -0.26,0.0325 -1.04,0.0975 -1.2675,0.0975 -0.26,0.0325 -0.4875,0.065 -0.4875,0.39 0,0.3575 0.2275,0.3575 0.78,0.3575 h 1.43 c 2.665,0 3.8675,2.21 3.8675,5.395 0,4.42 -2.2425,5.3625 -3.6725,5.3625 -1.3975,0 -3.835,-0.5525 -4.972503,-2.47 1.137503,0.1625 2.145003,-0.5525 2.145003,-1.7875 0,-1.17 -0.8775,-1.82 -1.820003,-1.82 -0.78,0 -1.82,0.455 -1.82,1.885 0,2.9575 3.022503,5.1025 6.565003,5.1025 3.965,0 6.9225,-2.9575 6.9225,-6.2725 z"
             style="font-size:65%;baseline-shift:sub"
             id="path13030" />
        </g>
        <g
           aria-label="e7"
           id="text40"
           style="font-size:50px;font-family:Arial;-inkscape-font-specification:Arial;baseline-shift:baseline;stroke:#000000;stroke-width:1.36216">
          <path
             d="m 113.13626,431.95848 c 0,-0.5 -0.4,-0.6 -0.65,-0.6 -0.45,0 -0.55,0.3 -0.65,0.7 -1.75,5.15 -6.25,5.15 -6.75,5.15 -2.5,0 -4.5,-1.5 -5.649999,-3.35 -1.5,-2.4 -1.5,-5.7 -1.5,-7.5 h 13.949999 c 1.1,0 1.25,0 1.25,-1.05 0,-4.95 -2.7,-9.8 -8.95,-9.8 -5.799999,0 -10.399999,5.15 -10.399999,11.4 0,6.7 5.25,11.55 10.999999,11.55 6.1,0 8.35,-5.55 8.35,-6.5 z m -3.3,-6.65 H 97.986261 c 0.3,-7.45 4.499999,-8.7 6.199999,-8.7 5.15,0 5.65,6.75 5.65,8.7 z"
             style="font-family:'Cambria Math';-inkscape-font-specification:'Cambria Math'"
             id="path13023" />
          <path
             d="m 130.34868,426.97848 h -7.8975 c -3.965,0 -4.03,-0.4225 -4.16,-1.04 h -0.8125 l -1.0725,6.695 h 0.8125 c 0.0975,-0.52 0.39,-2.5675 0.8125,-2.9575 0.2275,-0.195 2.7625,-0.195 3.185,-0.195 h 6.7275 l -3.64,5.135 c -2.925,4.3875 -3.9975,8.905 -3.9975,12.22 0,0.325 0,1.7875 1.495,1.7875 1.495,0 1.495,-1.4625 1.495,-1.7875 v -1.6575 c 0,-1.7875 0.0975,-3.575 0.3575,-5.33 0.13,-0.7475 0.585,-3.5425 2.015,-5.5575 l 4.3875,-6.175 c 0.2925,-0.39 0.2925,-0.455 0.2925,-1.1375 z"
             style="font-size:65%;baseline-shift:sub"
             id="path13025" />
        </g>
      </g>
    </g>
  </g>
  <metadata
     id="metadata45">
    <rdf:RDF>
      <cc:License
         rdf:about="http://creativecommons.org/licenses/by-sa/4.0/">
        <cc:permits
           rdf:resource="http://creativecommons.org/ns#Reproduction" />
        <cc:permits
           rdf:resource="http://creativecommons.org/ns#Distribution" />
        <cc:requires
           rdf:resource="http://creativecommons.org/ns#Notice" />
        <cc:requires
           rdf:resource="http://creativecommons.org/ns#Attribution" />
        <cc:permits
           rdf:resource="http://creativecommons.org/ns#DerivativeWorks" />
        <cc:requires
           rdf:resource="http://creativecommons.org/ns#ShareAlike" />
      </cc:License>
      <cc:Work
         rdf:about="">
        <cc:license
           rdf:resource="http://creativecommons.org/licenses/by-sa/4.0/" />
      </cc:Work>
    </rdf:RDF>
  </metadata>
</svg>
